<mxfile host="Electron" modified="2025-05-31T13:25:53.746Z" agent="Mozilla/5.0 (Windows NT 10.0; Win64; x64) AppleWebKit/537.36 (KHTML, like Gecko) draw.io/22.1.2 Chrome/114.0.5735.289 Electron/25.9.4 Safari/537.36" etag="-eMvCd748cQb07VaPmBv" version="22.1.2" type="device">
  <diagram name="PÃ¡gina-1" id="xBzKztCn5IWywDS5loLX">
    <mxGraphModel dx="989" dy="577" grid="1" gridSize="10" guides="1" tooltips="1" connect="1" arrows="1" fold="1" page="1" pageScale="1" pageWidth="827" pageHeight="1169" math="0" shadow="0">
      <root>
        <mxCell id="0" />
        <mxCell id="1" parent="0" />
        <mxCell id="b8DWxQ4wT-zj-UQol9mD-1" value="" style="rounded=0;whiteSpace=wrap;html=1;" vertex="1" parent="1">
          <mxGeometry x="80" y="30" width="620" height="370" as="geometry" />
        </mxCell>
        <mxCell id="b8DWxQ4wT-zj-UQol9mD-2" value="" style="rounded=0;whiteSpace=wrap;html=1;" vertex="1" parent="1">
          <mxGeometry x="100" y="80" width="300" height="310" as="geometry" />
        </mxCell>
        <mxCell id="b8DWxQ4wT-zj-UQol9mD-3" value="meu computador windows" style="text;html=1;strokeColor=none;fillColor=none;align=center;verticalAlign=middle;whiteSpace=wrap;rounded=0;" vertex="1" parent="1">
          <mxGeometry x="80" y="30" width="160" height="30" as="geometry" />
        </mxCell>
        <mxCell id="b8DWxQ4wT-zj-UQol9mD-4" value="docker-deamon" style="text;html=1;strokeColor=none;fillColor=none;align=center;verticalAlign=middle;whiteSpace=wrap;rounded=0;" vertex="1" parent="1">
          <mxGeometry x="100" y="80" width="160" height="30" as="geometry" />
        </mxCell>
        <mxCell id="b8DWxQ4wT-zj-UQol9mD-7" value="" style="rounded=0;whiteSpace=wrap;html=1;" vertex="1" parent="1">
          <mxGeometry x="120" y="160" width="230" height="200" as="geometry" />
        </mxCell>
        <mxCell id="b8DWxQ4wT-zj-UQol9mD-9" value="bookstore-app | sdk&lt;br&gt;.csproj" style="rounded=1;whiteSpace=wrap;html=1;" vertex="1" parent="1">
          <mxGeometry x="140" y="200" width="120" height="60" as="geometry" />
        </mxCell>
        <mxCell id="b8DWxQ4wT-zj-UQol9mD-10" value="porstgres-db" style="rounded=1;whiteSpace=wrap;html=1;" vertex="1" parent="1">
          <mxGeometry x="140" y="280" width="120" height="60" as="geometry" />
        </mxCell>
        <mxCell id="b8DWxQ4wT-zj-UQol9mD-11" value="bookstore-network" style="text;html=1;strokeColor=none;fillColor=none;align=center;verticalAlign=middle;whiteSpace=wrap;rounded=0;" vertex="1" parent="1">
          <mxGeometry x="110" y="160" width="160" height="30" as="geometry" />
        </mxCell>
        <mxCell id="b8DWxQ4wT-zj-UQol9mD-12" value="8080" style="text;html=1;strokeColor=none;fillColor=none;align=center;verticalAlign=middle;whiteSpace=wrap;rounded=0;" vertex="1" parent="1">
          <mxGeometry x="260" y="215" width="60" height="30" as="geometry" />
        </mxCell>
        <mxCell id="b8DWxQ4wT-zj-UQol9mD-13" value="5432" style="text;html=1;strokeColor=none;fillColor=none;align=center;verticalAlign=middle;whiteSpace=wrap;rounded=0;" vertex="1" parent="1">
          <mxGeometry x="260" y="295" width="60" height="30" as="geometry" />
        </mxCell>
        <mxCell id="b8DWxQ4wT-zj-UQol9mD-21" style="edgeStyle=orthogonalEdgeStyle;rounded=0;orthogonalLoop=1;jettySize=auto;html=1;" edge="1" parent="1" source="b8DWxQ4wT-zj-UQol9mD-14">
          <mxGeometry relative="1" as="geometry">
            <mxPoint x="499.9999999999998" y="264.9999999999999" as="targetPoint" />
          </mxGeometry>
        </mxCell>
        <mxCell id="b8DWxQ4wT-zj-UQol9mD-14" value="Actor" style="shape=umlActor;verticalLabelPosition=bottom;verticalAlign=top;html=1;outlineConnect=0;" vertex="1" parent="1">
          <mxGeometry x="560" y="235" width="30" height="60" as="geometry" />
        </mxCell>
        <mxCell id="b8DWxQ4wT-zj-UQol9mD-16" style="edgeStyle=orthogonalEdgeStyle;rounded=0;orthogonalLoop=1;jettySize=auto;html=1;" edge="1" parent="1" source="b8DWxQ4wT-zj-UQol9mD-15" target="b8DWxQ4wT-zj-UQol9mD-12">
          <mxGeometry relative="1" as="geometry" />
        </mxCell>
        <mxCell id="b8DWxQ4wT-zj-UQol9mD-15" value="5055" style="text;html=1;strokeColor=none;fillColor=none;align=center;verticalAlign=middle;whiteSpace=wrap;rounded=0;" vertex="1" parent="1">
          <mxGeometry x="420" y="215" width="60" height="30" as="geometry" />
        </mxCell>
        <mxCell id="b8DWxQ4wT-zj-UQol9mD-18" style="edgeStyle=orthogonalEdgeStyle;rounded=0;orthogonalLoop=1;jettySize=auto;html=1;" edge="1" parent="1" source="b8DWxQ4wT-zj-UQol9mD-17" target="b8DWxQ4wT-zj-UQol9mD-13">
          <mxGeometry relative="1" as="geometry" />
        </mxCell>
        <mxCell id="b8DWxQ4wT-zj-UQol9mD-17" value="5434" style="text;html=1;strokeColor=none;fillColor=none;align=center;verticalAlign=middle;whiteSpace=wrap;rounded=0;" vertex="1" parent="1">
          <mxGeometry x="420" y="295" width="60" height="30" as="geometry" />
        </mxCell>
        <mxCell id="b8DWxQ4wT-zj-UQol9mD-20" value="" style="endArrow=none;html=1;rounded=0;exitX=0.68;exitY=0.999;exitDx=0;exitDy=0;exitPerimeter=0;" edge="1" parent="1" source="b8DWxQ4wT-zj-UQol9mD-1">
          <mxGeometry width="50" height="50" relative="1" as="geometry">
            <mxPoint x="450" y="265" as="sourcePoint" />
            <mxPoint x="500" y="215" as="targetPoint" />
          </mxGeometry>
        </mxCell>
        <mxCell id="b8DWxQ4wT-zj-UQol9mD-22" style="edgeStyle=orthogonalEdgeStyle;rounded=0;orthogonalLoop=1;jettySize=auto;html=1;" edge="1" parent="1">
          <mxGeometry relative="1" as="geometry">
            <mxPoint x="500" y="230" as="sourcePoint" />
            <mxPoint x="470" y="229.66" as="targetPoint" />
          </mxGeometry>
        </mxCell>
        <mxCell id="b8DWxQ4wT-zj-UQol9mD-23" style="edgeStyle=orthogonalEdgeStyle;rounded=0;orthogonalLoop=1;jettySize=auto;html=1;" edge="1" parent="1">
          <mxGeometry relative="1" as="geometry">
            <mxPoint x="501" y="310" as="sourcePoint" />
            <mxPoint x="471" y="309.65999999999997" as="targetPoint" />
          </mxGeometry>
        </mxCell>
        <mxCell id="b8DWxQ4wT-zj-UQol9mD-24" value="" style="rounded=0;whiteSpace=wrap;html=1;" vertex="1" parent="1">
          <mxGeometry x="90" y="440" width="620" height="370" as="geometry" />
        </mxCell>
        <mxCell id="b8DWxQ4wT-zj-UQol9mD-25" value="" style="rounded=0;whiteSpace=wrap;html=1;" vertex="1" parent="1">
          <mxGeometry x="110" y="490" width="300" height="310" as="geometry" />
        </mxCell>
        <mxCell id="b8DWxQ4wT-zj-UQol9mD-26" value="meu computador windows" style="text;html=1;strokeColor=none;fillColor=none;align=center;verticalAlign=middle;whiteSpace=wrap;rounded=0;" vertex="1" parent="1">
          <mxGeometry x="90" y="440" width="160" height="30" as="geometry" />
        </mxCell>
        <mxCell id="b8DWxQ4wT-zj-UQol9mD-27" value="docker-deamon" style="text;html=1;strokeColor=none;fillColor=none;align=center;verticalAlign=middle;whiteSpace=wrap;rounded=0;" vertex="1" parent="1">
          <mxGeometry x="110" y="490" width="160" height="30" as="geometry" />
        </mxCell>
        <mxCell id="b8DWxQ4wT-zj-UQol9mD-28" value="" style="rounded=0;whiteSpace=wrap;html=1;" vertex="1" parent="1">
          <mxGeometry x="130" y="570" width="230" height="200" as="geometry" />
        </mxCell>
        <mxCell id="b8DWxQ4wT-zj-UQol9mD-29" value="bookstore-app | runtime&lt;br&gt;/publish" style="rounded=1;whiteSpace=wrap;html=1;" vertex="1" parent="1">
          <mxGeometry x="150" y="610" width="120" height="60" as="geometry" />
        </mxCell>
        <mxCell id="b8DWxQ4wT-zj-UQol9mD-30" value="porstgres-db" style="rounded=1;whiteSpace=wrap;html=1;" vertex="1" parent="1">
          <mxGeometry x="150" y="690" width="120" height="60" as="geometry" />
        </mxCell>
        <mxCell id="b8DWxQ4wT-zj-UQol9mD-31" value="bookstore-network" style="text;html=1;strokeColor=none;fillColor=none;align=center;verticalAlign=middle;whiteSpace=wrap;rounded=0;" vertex="1" parent="1">
          <mxGeometry x="120" y="570" width="160" height="30" as="geometry" />
        </mxCell>
        <mxCell id="b8DWxQ4wT-zj-UQol9mD-32" value="8080" style="text;html=1;strokeColor=none;fillColor=none;align=center;verticalAlign=middle;whiteSpace=wrap;rounded=0;" vertex="1" parent="1">
          <mxGeometry x="270" y="625" width="60" height="30" as="geometry" />
        </mxCell>
        <mxCell id="b8DWxQ4wT-zj-UQol9mD-33" value="5432" style="text;html=1;strokeColor=none;fillColor=none;align=center;verticalAlign=middle;whiteSpace=wrap;rounded=0;" vertex="1" parent="1">
          <mxGeometry x="270" y="705" width="60" height="30" as="geometry" />
        </mxCell>
        <mxCell id="b8DWxQ4wT-zj-UQol9mD-34" style="edgeStyle=orthogonalEdgeStyle;rounded=0;orthogonalLoop=1;jettySize=auto;html=1;" edge="1" parent="1" source="b8DWxQ4wT-zj-UQol9mD-35">
          <mxGeometry relative="1" as="geometry">
            <mxPoint x="509.9999999999998" y="674.9999999999999" as="targetPoint" />
          </mxGeometry>
        </mxCell>
        <mxCell id="b8DWxQ4wT-zj-UQol9mD-35" value="Actor" style="shape=umlActor;verticalLabelPosition=bottom;verticalAlign=top;html=1;outlineConnect=0;" vertex="1" parent="1">
          <mxGeometry x="570" y="645" width="30" height="60" as="geometry" />
        </mxCell>
        <mxCell id="b8DWxQ4wT-zj-UQol9mD-36" style="edgeStyle=orthogonalEdgeStyle;rounded=0;orthogonalLoop=1;jettySize=auto;html=1;" edge="1" parent="1" source="b8DWxQ4wT-zj-UQol9mD-37" target="b8DWxQ4wT-zj-UQol9mD-32">
          <mxGeometry relative="1" as="geometry" />
        </mxCell>
        <mxCell id="b8DWxQ4wT-zj-UQol9mD-37" value="80" style="text;html=1;strokeColor=none;fillColor=none;align=center;verticalAlign=middle;whiteSpace=wrap;rounded=0;" vertex="1" parent="1">
          <mxGeometry x="430" y="625" width="60" height="30" as="geometry" />
        </mxCell>
        <mxCell id="b8DWxQ4wT-zj-UQol9mD-38" style="edgeStyle=orthogonalEdgeStyle;rounded=0;orthogonalLoop=1;jettySize=auto;html=1;" edge="1" parent="1" source="b8DWxQ4wT-zj-UQol9mD-39" target="b8DWxQ4wT-zj-UQol9mD-33">
          <mxGeometry relative="1" as="geometry" />
        </mxCell>
        <mxCell id="b8DWxQ4wT-zj-UQol9mD-39" value="5432" style="text;html=1;strokeColor=none;fillColor=none;align=center;verticalAlign=middle;whiteSpace=wrap;rounded=0;" vertex="1" parent="1">
          <mxGeometry x="430" y="705" width="60" height="30" as="geometry" />
        </mxCell>
        <mxCell id="b8DWxQ4wT-zj-UQol9mD-40" value="" style="endArrow=none;html=1;rounded=0;exitX=0.68;exitY=0.999;exitDx=0;exitDy=0;exitPerimeter=0;" edge="1" parent="1" source="b8DWxQ4wT-zj-UQol9mD-24">
          <mxGeometry width="50" height="50" relative="1" as="geometry">
            <mxPoint x="460" y="675" as="sourcePoint" />
            <mxPoint x="510" y="625" as="targetPoint" />
          </mxGeometry>
        </mxCell>
        <mxCell id="b8DWxQ4wT-zj-UQol9mD-41" style="edgeStyle=orthogonalEdgeStyle;rounded=0;orthogonalLoop=1;jettySize=auto;html=1;" edge="1" parent="1">
          <mxGeometry relative="1" as="geometry">
            <mxPoint x="510" y="640" as="sourcePoint" />
            <mxPoint x="480" y="639.66" as="targetPoint" />
          </mxGeometry>
        </mxCell>
        <mxCell id="b8DWxQ4wT-zj-UQol9mD-42" style="edgeStyle=orthogonalEdgeStyle;rounded=0;orthogonalLoop=1;jettySize=auto;html=1;" edge="1" parent="1">
          <mxGeometry relative="1" as="geometry">
            <mxPoint x="511" y="720" as="sourcePoint" />
            <mxPoint x="481" y="719.66" as="targetPoint" />
          </mxGeometry>
        </mxCell>
      </root>
    </mxGraphModel>
  </diagram>
</mxfile>
